/* XPM */
static char *button_close[] = {
/* columns rows colors chars-per-pixel */
"20 20 3 1 ",
"  c #aaaaaaaaaaaa",
". c red",
"X c white",
/* pixels */
"XXXXXXXXXXXXXXXXXXXX",
"X                  X",
"X                  X",
"X                  X",
"X                  X",
"X                  X",
"X   ..      ..     X",
"X   ....  ....     X",
"X      .....       X",
"X       ..         X",
"X      .....       X",
"X   ....  ....     X",
"X   ..      ..     X",
"X                  X",
"X                  X",
"X                  X",
"X                  X",
"X                  X",
"X                  X",
"XXXXXXXXXXXXXXXXXXXX"
};
