/* XPM */
static char *button_close[] = {
/* columns rows colors chars-per-pixel */
"20 25 3 1 ",
"  c #aaaaaaaaaaaa",
". c #333333",
"X c white",
/* pixels */
"XXXXXXXXXXXXXXXXXXXX",
"X                  X",
"X                  X",
"X                  X",
"X                  X",
"X                  X",
"X                  X",
"X                  X",
"X                  X",
"X       ..         X",
"X     ..  ..       X",
"X   ..      ..     X",
"X                  X",
"X                  X",
"X   ..      ..     X",
"X     ..  ..       X",
"X       ..         X",
"X                  X",
"X                  X",
"X                  X",
"X                  X",
"X                  X",
"X                  X",
"X                  X",
"XXXXXXXXXXXXXXXXXXXX"
};
